#!OML:ASF F:\VICON\USERDATA\INSTALL\rory3\rory3.ASF
:FULLY-SPECIFIED
:DEGREES
62
root 1.13591 17.374 -16.8023 7.90967 -0.952879 -1.88991
lowerback 12.2558 0.0864732 1.53731
upperback 1.11991 0.48654 2.70517
thorax -5.71266 0.232658 1.89286
lowerneck -22.616 -4.63875 -9.18927
upperneck 11.7557 -4.6161 6.76627
head 7.66446 -1.966 3.1382
rclavicle -1.98785e-015 -7.95139e-015
rhumerus -28.8214 -2.75243 -83.2471
rradius 39.1874
rwrist 3.65594
rhand -11.8722 10.2101
rfingers 7.12502
rthumb 14.1801 -19.2859
lclavicle -1.98785e-015 -7.95139e-015
lhumerus -26.3069 3.49864 88.385
lradius 31.9922
lwrist -9.31352
lhand -13.6686 26.1003
lfingers 7.12502
lthumb 12.4487 55.7095
rfemur -21.9266 1.19079 23.1035
rtibia 35.829
rfoot -15.3198 -12.0699
rtoes 3.52723
lfemur -23.2617 2.31434 -19.0463
ltibia 37.0069
lfoot -18.8567 1.59708
ltoes 2.14665
63
root 1.13796 17.3379 -16.8246 8.01081 -1.00289 -1.7022
lowerback 12.6354 0.105031 1.28379
upperback 1.19261 0.483606 2.66893
thorax -5.84896 0.236707 1.99965
lowerneck -22.9185 -4.65719 -9.01814
upperneck 11.7144 -4.64071 6.63562
head 7.69369 -1.97682 3.06055
rclavicle -9.93923e-016 2.62396e-014
rhumerus -28.6335 -2.38108 -83.3079
rradius 39.4868
rwrist 3.41141
rhand -12.231 10.8239
rfingers 7.12502
rthumb 13.8344 -18.696
lclavicle -9.93923e-016 2.62396e-014
lhumerus -26.3824 3.34328 88.4252
lradius 32.664
lwrist -9.25699
lhand -14.0003 25.4437
lfingers 7.12502
lthumb 12.1289 55.0721
rfemur -22.7873 0.942165 22.9115
rtibia 37.0708
rfoot -15.8336 -11.9231
rtoes 4.64861
lfemur -24.0538 2.74978 -19.3235
ltibia 38.0528
lfoot -19.2949 1.41158
ltoes 1.68597
64
root 1.14162 17.291 -16.8503 8.12398 -1.00216 -1.47219
lowerback 13.0768 0.07781 0.99333
upperback 1.19671 0.418328 2.66318
thorax -6.0908 0.212171 2.17206
lowerneck -22.8874 -4.57925 -9.10154
upperneck 11.4676 -4.52089 6.74248
head 7.60132 -1.91278 3.12575
rclavicle -6.55989e-015 -2.62396e-014
rhumerus -28.4509 -2.00164 -83.289
rradius 39.6848
rwrist 3.31982
rhand -12.2973 11.5558
rfingers 7.12502
rthumb 13.7704 -17.9684
lclavicle -6.55989e-015 -2.62396e-014
lhumerus -26.624 3.17256 88.5128
lradius 33.3847
lwrist -8.94275
lhand -14.3506 24.6085
lfingers 7.12502
lthumb 11.791 54.2566
rfemur -23.7493 0.580901 22.6879
rtibia 38.4156
rfoot -16.2993 -11.8053
rtoes 4.45712
lfemur -24.8692 3.05344 -19.6338
ltibia 39.1155
lfoot -19.6979 1.23109
ltoes 1.48889
65
root 1.14585 17.234 -16.8789 8.41092 -1.07555 -1.35892
lowerback 13.2246 0.090223 0.897784
upperback 1.24885 0.420323 2.62054
thorax -6.11809 0.214889 2.18112
lowerneck -22.8613 -4.50594 -9.14122
upperneck 11.151 -4.42149 6.87269
head 7.48789 -1.85372 3.1884
rclavicle 4.96962e-015 2.14687e-014
rhumerus -28.1895 -1.82786 -83.2982
rradius 39.8457
rwrist 3.28537
rhand -12.271 12.0509
rfingers 7.12502
rthumb 13.7959 -17.4717
lclavicle 4.96962e-015 2.14687e-014
lhumerus -26.7072 2.64183 88.5912
lradius 34.0868
lwrist -8.31085
lhand -14.0681 25.4304
lfingers 7.12502
lthumb 12.0634 55.0627
rfemur -24.9673 0.291301 22.593
rtibia 39.8206
rfoot -16.8081 -11.7468
rtoes 3.36475
lfemur -25.8842 3.34397 -19.8125
ltibia 40.2028
lfoot -20.053 0.972511
ltoes 1.96688
66
root 1.14838 17.1798 -16.9085 8.6406 -1.14425 -1.25692
lowerback 13.4541 0.111992 0.838712
upperback 1.33735 0.437387 2.5274
thorax -6.15192 0.223257 2.11334
lowerneck -22.8985 -4.46023 -9.12429
upperneck 10.7989 -4.37013 7.00965
head 7.37597 -1.81314 3.23693
rclavicle -8.34896e-015 -1.98785e-014
rhumerus -27.9222 -1.76662 -83.3516
rradius 40.0794
rwrist 3.19129
rhand -12.3204 12.7107
rfingers 7.12502
rthumb 13.7483 -16.8151
lclavicle -8.34896e-015 -1.98785e-014
lhumerus -26.6565 2.02029 88.6191
lradius 34.6931
lwrist -7.74274
lhand -13.5735 26.5631
lfingers 7.12502
lthumb 12.5403 56.1668
rfemur -26.1013 0.016471 22.5069
rtibia 41.2425
rfoot -17.4042 -11.6041
rtoes 2.37782
lfemur -26.8396 3.61927 -19.9795
ltibia 41.3223
lfoot -20.4114 0.753375
ltoes 2.24571
67
root 1.14807 17.128 -16.9356 8.66775 -1.2724 -1.06837
lowerback 13.9975 0.150784 0.598209
upperback 1.40982 0.456753 2.4421
thorax -6.37847 0.238065 2.15799
lowerneck -22.8084 -4.45115 -9.2066
upperneck 10.4149 -4.35892 7.21494
head 7.24096 -1.79209 3.31942
rclavicle -2.5842e-015 2.38542e-015
rhumerus -27.6764 -1.67462 -83.3709
rradius 40.2843
rwrist 3.08214
rhand -12.54 13.532
rfingers 7.12502
rthumb 13.5366 -16.008
lclavicle -2.5842e-015 2.38542e-015
lhumerus -26.6683 1.74541 88.5954
lradius 35.2221
lwrist -7.61484
lhand -13.7248 25.8018
lfingers 7.12502
lthumb 12.3945 55.4144
rfemur -26.9783 -0.187146 22.3205
rtibia 42.6464
rfoot -18.0487 -11.3669
rtoes 1.59228
lfemur -27.5537 3.94229 -20.2425
ltibia 42.4606
lfoot -20.8788 0.671364
ltoes 2.09024
68
root 1.15077 17.0723 -16.9588 8.68632 -1.29677 -0.917564
lowerback 14.4392 0.116046 0.462492
upperback 1.51169 0.390106 2.36091
thorax -6.51302 0.208031 2.16348
lowerneck -22.8754 -4.43706 -9.13936
upperneck 10.1968 -4.35182 7.25784
head 7.17868 -1.77986 3.32249
rclavicle -5.56597e-015 -2.06736e-014
rhumerus -27.4258 -1.53644 -83.4678
rradius 40.5608
rwrist 3.06086
rhand -12.7964 13.944
rfingers 7.12502
rthumb 13.2894 -15.6123
lclavicle -5.56597e-015 -2.06736e-014
lhumerus -26.6025 1.56098 88.5213
lradius 35.5786
lwrist -7.66623
lhand -13.4869 25.2986
lfingers 7.12502
lthumb 12.6239 54.8972
rfemur -27.8257 -0.518784 22.1985
rtibia 44.0171
rfoot -18.6119 -11.2294
rtoes 0.994487
lfemur -28.3019 4.18702 -20.4627
ltibia 43.6223
lfoot -21.3471 0.524672
ltoes 2.21422
69
root 1.1511 17.0134 -16.9797 8.78956 -1.23457 -0.856389
lowerback 14.7541 0.0289268 0.413429
upperback 1.59289 0.267218 2.30723
thorax -6.59646 0.148701 2.16031
lowerneck -23.0984 -4.41667 -8.92476
upperneck 10.149 -4.34612 7.12568
head 7.18929 -1.77633 3.24281
rclavicle 0 1.27222e-014
rhumerus -27.2904 -1.35306 -83.5997
rradius 41.1127
rwrist 3.15561
rhand -12.5187 12.9555
rfingers 7.12502
rthumb 13.5571 -16.5831
lclavicle 0 1.27222e-014
lhumerus -26.5173 1.38087 88.3962
lradius 35.8254
lwrist -7.50228
lhand -13.2838 25.3313
lfingers 7.12502
lthumb 12.8197 54.9177
rfemur -28.7395 -0.859663 22.2022
rtibia 45.3613
rfoot -19.1819 -11.2706
rtoes 0.464359
lfemur -29.1862 4.4265 -20.5712
ltibia 44.8089
lfoot -21.7865 0.277727
ltoes 2.24717
70
root 1.15001 16.9467 -17.0007 8.93849 -1.24013 -0.790679
lowerback 14.981 -0.00968781 0.371364
upperback 1.68613 0.2059 2.23297
thorax -6.62008 0.118637 2.11853
lowerneck -23.0499 -4.47646 -8.78668
upperneck 9.79427 -4.44906 7.07136
head 7.06831 -1.82534 3.18723
rclavicle -6.55989e-015 -3.18055e-015
rhumerus -27.2594 -1.33909 -83.6863
rradius 41.8046
rwrist 3.37536
rhand -12.2724 11.1407
rfingers 7.12502
rthumb 13.7945 -18.3819
lclavicle -6.55989e-015 -3.18055e-015
lhumerus -26.5286 1.13058 88.2857
lradius 36.321
lwrist -7.20555
lhand -13.0868 25.8615
lfingers 7.12502
lthumb 13.0095 55.4359
rfemur -29.7079 -1.14976 22.2009
rtibia 46.7012
rfoot -19.6852 -11.267
rtoes -0.0449454
lfemur -30.1335 4.74102 -20.6972
ltibia 46.0415
lfoot -22.2136 0.0406433
ltoes 2.03557
71
root 1.15366 16.8808 -17.0226 9.09138 -1.19912 -0.763018
lowerback 15.1653 -0.0161677 0.428583
upperback 1.82855 0.202906 2.17923
thorax -6.56927 0.114139 2.02956
lowerneck -23.1089 -4.58794 -8.78723
upperneck 9.46473 -4.59725 7.18391
head 6.98441 -1.88423 3.20373
rclavicle -5.96354e-015 2.62396e-014
rhumerus -27.0726 -1.46057 -83.6941
rradius 42.3206
rwrist 3.19232
rhand -12.3537 10.5336
rfingers 7.12502
rthumb 13.7161 -18.9943
lclavicle -5.96354e-015 2.62396e-014
lhumerus -26.4899 0.7393 88.2669
lradius 36.9767
lwrist -6.98954
lhand -13.0324 25.9785
lfingers 7.12502
lthumb 13.062 55.5495
rfemur -30.6893 -1.49959 22.227
rtibia 48.0401
rfoot -20.1074 -11.1386
rtoes 0.0122089
lfemur -31.092 5.00553 -20.7994
ltibia 47.2967
lfoot -22.6473 -0.1056
ltoes 1.80053
